<?xml version="1.0" standalone="no"?>
<!DOCTYPE svg PUBLIC "-//W3C//DTD SVG 20010904//EN"
 "http://www.w3.org/TR/2001/REC-SVG-20010904/DTD/svg10.dtd">
<svg version="1.0" xmlns="http://www.w3.org/2000/svg"
 width="512.000000pt" height="512.000000pt" viewBox="0 0 512.000000 512.000000"
 preserveAspectRatio="xMidYMid meet">

<g transform="translate(0.000000,512.000000) scale(0.100000,-0.100000)"
fill="#000000" stroke="none">
<path d="M603 4746 c-88 -28 -176 -107 -216 -194 l-22 -47 0 -1375 0 -1375 26
-55 c51 -109 154 -182 282 -201 87 -12 3693 -11 3780 1 123 18 220 88 274 198
l28 57 0 1375 0 1375 -28 56 c-32 67 -109 142 -175 172 l-47 22 -1930 2
c-1568 1 -1938 -1 -1972 -11z m3895 -145 c43 -22 83 -63 106 -108 14 -29 16
-158 16 -1364 l0 -1331 -26 -49 c-15 -26 -45 -61 -67 -76 l-40 -28 -1906 -3
c-1351 -2 -1917 0 -1944 8 -20 6 -53 27 -72 46 -70 69 -65 -34 -65 1436 0
1288 1 1330 19 1366 22 42 62 82 106 105 27 15 219 16 1933 17 1853 0 1904 0
1940 -19z"/>
<path d="M1185 4177 c-83 -32 -146 -96 -173 -176 -19 -54 -14 -150 9 -201 25
-55 80 -114 134 -143 32 -17 57 -22 125 -22 98 0 140 17 202 82 140 145 84
390 -105 460 -18 6 -61 11 -97 11 -36 0 -79 -5 -95 -11z m172 -147 c89 -54 82
-200 -11 -244 -98 -46 -206 18 -206 123 0 84 56 141 140 141 27 0 58 -8 77
-20z"/>
<path d="M3661 3977 c-160 -154 -1217 -1153 -1232 -1164 -14 -11 -55 21 -285
222 -207 181 -275 235 -295 235 -21 0 -156 -114 -641 -540 -337 -297 -619
-551 -627 -563 -29 -47 19 -117 71 -103 13 3 286 237 607 521 321 283 587 515
590 515 4 0 125 -103 269 -230 145 -126 274 -233 288 -236 14 -4 33 0 47 9 12
8 299 277 637 597 338 320 630 596 648 613 l32 31 343 -342 c366 -366 369
-368 415 -319 50 53 52 51 -351 454 -439 440 -396 415 -516 300z"/>
<path d="M684 1132 c-199 -120 -369 -224 -378 -231 -24 -20 -20 -74 7 -98 49
-44 730 -443 757 -443 15 0 35 9 46 21 18 20 19 43 19 476 l0 455 -24 19 c-13
10 -33 19 -45 19 -11 -1 -184 -99 -382 -218z m316 -277 c0 -162 -3 -295 -7
-295 -18 0 -488 288 -484 296 5 10 471 293 484 294 4 0 7 -133 7 -295z"/>
<path d="M4009 1331 l-24 -19 0 -455 c0 -433 1 -456 19 -476 11 -12 31 -21 46
-21 27 0 708 399 758 443 27 25 30 77 5 99 -40 34 -743 448 -761 448 -11 0
-30 -9 -43 -19z m367 -328 c194 -116 242 -149 232 -158 -20 -18 -468 -285
-479 -285 -5 0 -9 119 -9 295 0 162 3 295 6 295 3 0 116 -66 250 -147z"/>
<path d="M1647 1129 c-218 -53 -295 -314 -139 -475 54 -56 113 -79 202 -79
112 0 190 47 245 147 26 46 30 63 30 128 0 89 -23 146 -80 202 -67 66 -173 98
-258 77z m140 -161 c40 -24 68 -92 59 -143 -9 -46 -65 -102 -111 -111 -51 -9
-119 19 -144 59 -36 59 -32 125 12 173 50 55 116 63 184 22z"/>
<path d="M2488 1126 c-139 -38 -217 -154 -206 -301 18 -222 287 -334 456 -189
86 73 122 190 92 297 -39 140 -202 233 -342 193z m145 -153 c65 -33 87 -130
44 -194 -78 -117 -257 -65 -257 74 0 67 31 109 97 132 40 14 70 11 116 -12z"/>
<path d="M3360 1131 c-138 -29 -224 -137 -225 -281 0 -65 4 -82 30 -128 55
-100 133 -147 245 -147 89 0 146 23 202 80 138 140 95 376 -82 454 -54 23
-122 32 -170 22z m129 -160 c63 -44 82 -127 45 -191 -20 -32 -85 -70 -122 -70
-96 0 -171 116 -128 198 43 84 136 112 205 63z"/>
</g>
</svg>
